<?xml version="1.0" standalone="no"?>
<!DOCTYPE svg PUBLIC "-//W3C//DTD SVG 20010904//EN"
 "http://www.w3.org/TR/2001/REC-SVG-20010904/DTD/svg10.dtd">
<svg version="1.0" xmlns="http://www.w3.org/2000/svg"
 width="298.000000pt" height="298.000000pt" viewBox="0 0 298.000000 298.000000"
 preserveAspectRatio="xMidYMid meet">
<metadata>
Created by potrace 1.14, written by Peter Selinger 2001-2017
</metadata>
<g transform="translate(0.000000,298.000000) scale(0.100000,-0.100000)"
fill="#000000" stroke="none">
<path d="M2 2711 c2 -4 66 -92 143 -195 l140 -186 411 0 c358 0 419 -2 465
-17 71 -22 144 -69 194 -124 59 -65 141 -180 137 -193 -2 -6 0 -8 4 -4 4 4 74
-83 157 -193 83 -110 154 -196 158 -192 5 5 18 45 30 88 31 115 31 308 1 423
-73 273 -289 499 -556 581 -66 20 -85 21 -678 21 -335 0 -608 -4 -606 -9z"/>
<path d="M2386 2001 l-588 -589 -250 332 c-137 182 -268 351 -291 375 -23 24
-65 55 -93 68 -50 23 -59 23 -259 21 l-207 -3 259 -345 c143 -190 378 -502
522 -695 144 -192 266 -350 270 -350 4 0 197 186 427 413 l419 413 3 -695 2
-696 190 0 190 0 0 1170 c0 644 -1 1170 -3 1170 -2 0 -268 -265 -591 -589z"/>
<path d="M603 1482 c-6 -4 186 -268 450 -619 l460 -613 248 0 c137 0 249 2
249 5 0 6 -199 272 -270 362 -25 31 -39 57 -34 64 4 7 3 9 -3 6 -12 -7 -126
138 -126 159 0 7 -3 11 -7 9 -4 -2 -99 118 -211 267 -112 150 -221 293 -242
320 l-37 48 -233 -1 c-129 0 -238 -4 -244 -7z"/>
</g>
</svg>
